<svg width="31" height="31" viewBox="0 0 31 31" fill="none" xmlns="http://www.w3.org/2000/svg">
<path d="M7.92854 1.36601C7.92854 1.11737 7.82976 0.878915 7.65395 0.7031C7.47813 0.527285 7.23968 0.428513 6.99104 0.428513C6.74239 0.428513 6.50394 0.527285 6.32812 0.7031C6.15231 0.878915 6.05354 1.11737 6.05354 1.36601V2.30351H4.17854C3.18397 2.30351 2.23015 2.6986 1.52689 3.40186C0.823624 4.10512 0.428535 5.05895 0.428535 6.05351L0.428535 7.92851H30.4285V6.05351C30.4285 5.05895 30.0334 4.10512 29.3302 3.40186C28.6269 2.6986 27.6731 2.30351 26.6785 2.30351H24.8035V1.36601C24.8035 1.11737 24.7048 0.878915 24.5289 0.7031C24.3531 0.527285 24.1147 0.428513 23.866 0.428513C23.6174 0.428513 23.3789 0.527285 23.2031 0.7031C23.0273 0.878915 22.9285 1.11737 22.9285 1.36601V2.30351H7.92854V1.36601ZM30.4285 26.6785V9.80351H0.428535V26.6785C0.428535 27.6731 0.823624 28.6269 1.52689 29.3302C2.23015 30.0334 3.18397 30.4285 4.17854 30.4285H26.6785C27.6731 30.4285 28.6269 30.0334 29.3302 29.3302C30.0334 28.6269 30.4285 27.6731 30.4285 26.6785ZM18.241 13.5535H20.116C20.3647 13.5535 20.6031 13.6523 20.7789 13.8281C20.9548 14.0039 21.0535 14.2424 21.0535 14.491V16.366C21.0535 16.6147 20.9548 16.8531 20.7789 17.0289C20.6031 17.2047 20.3647 17.3035 20.116 17.3035H18.241C17.9924 17.3035 17.7539 17.2047 17.5781 17.0289C17.4023 16.8531 17.3035 16.6147 17.3035 16.366V14.491C17.3035 14.2424 17.4023 14.0039 17.5781 13.8281C17.7539 13.6523 17.9924 13.5535 18.241 13.5535ZM23.866 13.5535H25.741C25.9897 13.5535 26.2281 13.6523 26.4039 13.8281C26.5798 14.0039 26.6785 14.2424 26.6785 14.491V16.366C26.6785 16.6147 26.5798 16.8531 26.4039 17.0289C26.2281 17.2047 25.9897 17.3035 25.741 17.3035H23.866C23.6174 17.3035 23.3789 17.2047 23.2031 17.0289C23.0273 16.8531 22.9285 16.6147 22.9285 16.366V14.491C22.9285 14.2424 23.0273 14.0039 23.2031 13.8281C23.3789 13.6523 23.6174 13.5535 23.866 13.5535ZM4.17854 20.116C4.17854 19.8674 4.27731 19.6289 4.45312 19.4531C4.62894 19.2773 4.86739 19.1785 5.11604 19.1785H6.99104C7.23968 19.1785 7.47813 19.2773 7.65395 19.4531C7.82976 19.6289 7.92854 19.8674 7.92854 20.116V21.991C7.92854 22.2397 7.82976 22.4781 7.65395 22.6539C7.47813 22.8297 7.23968 22.9285 6.99104 22.9285H5.11604C4.86739 22.9285 4.62894 22.8297 4.45312 22.6539C4.27731 22.4781 4.17854 22.2397 4.17854 21.991V20.116ZM10.741 19.1785H12.616C12.8647 19.1785 13.1031 19.2773 13.2789 19.4531C13.4548 19.6289 13.5535 19.8674 13.5535 20.116V21.991C13.5535 22.2397 13.4548 22.4781 13.2789 22.6539C13.1031 22.8297 12.8647 22.9285 12.616 22.9285H10.741C10.4924 22.9285 10.2539 22.8297 10.0781 22.6539C9.90231 22.4781 9.80354 22.2397 9.80354 21.991V20.116C9.80354 19.8674 9.90231 19.6289 10.0781 19.4531C10.2539 19.2773 10.4924 19.1785 10.741 19.1785Z" fill="white"/>
</svg>
