<svg width="31" height="31" viewBox="0 0 31 31" fill="none" xmlns="http://www.w3.org/2000/svg">
<path d="M2.92854 30.4285C2.92854 30.4285 0.428535 30.4285 0.428535 27.9285C0.428535 25.4285 2.92854 17.9285 15.4285 17.9285C27.9285 17.9285 30.4285 25.4285 30.4285 27.9285C30.4285 30.4285 27.9285 30.4285 27.9285 30.4285H2.92854ZM15.4285 15.4285C17.4177 15.4285 19.3253 14.6384 20.7318 13.2318C22.1384 11.8253 22.9285 9.91765 22.9285 7.92853C22.9285 5.9394 22.1384 4.03175 20.7318 2.62523C19.3253 1.2187 17.4177 0.428528 15.4285 0.428528C13.4394 0.428528 11.5318 1.2187 10.1252 2.62523C8.71871 4.03175 7.92854 5.9394 7.92854 7.92853C7.92854 9.91765 8.71871 11.8253 10.1252 13.2318C11.5318 14.6384 13.4394 15.4285 15.4285 15.4285Z" fill="white"/>
</svg>
